<?xml version="1.0" encoding="utf-8"?>
<!-- Generator: Adobe Illustrator 21.1.0, SVG Export Plug-In . SVG Version: 6.00 Build 0)  -->
<svg version="1.1" id="Layer_1" xmlns="http://www.w3.org/2000/svg" xmlns:xlink="http://www.w3.org/1999/xlink" x="0px" y="0px"
	 width="152.8px" height="39px" viewBox="0 0 152.8 39" style="enable-background:new 0 0 152.8 39;" xml:space="preserve">
<style type="text/css">
	.st0{clip-path:url(#SVGID_2_);fill:#961C1F;}
	.st1{clip-path:url(#SVGID_4_);fill:#961C1F;}
	.st2{clip-path:url(#SVGID_6_);fill:#961C1F;}
	.st3{clip-path:url(#SVGID_8_);fill:#961C1F;}
	.st4{clip-path:url(#SVGID_10_);fill:#961C1F;}
	.st5{clip-path:url(#SVGID_12_);fill:#961C1F;}
	.st6{clip-path:url(#SVGID_14_);fill:#FFFFFF;}
	.st7{clip-path:url(#SVGID_16_);fill:#FFFFFF;}
	.st8{clip-path:url(#SVGID_18_);fill:#FFFFFF;}
	.st9{clip-path:url(#SVGID_20_);fill:#FFFFFF;}
	.st10{clip-path:url(#SVGID_22_);fill:#FFFFFF;}
	.st11{clip-path:url(#SVGID_24_);fill:#FFFFFF;}
	.st12{clip-path:url(#SVGID_26_);fill:#FFFFFF;}
	.st13{clip-path:url(#SVGID_28_);fill:#FFFFFF;}
	.st14{clip-path:url(#SVGID_30_);fill:#FFFFFF;}
	.st15{clip-path:url(#SVGID_32_);fill:#FFFFFF;}
	.st16{clip-path:url(#SVGID_34_);fill:#FFFFFF;}
	.st17{clip-path:url(#SVGID_36_);fill:#FFFFFF;}
	.st18{clip-path:url(#SVGID_38_);fill:#FFFFFF;}
	.st19{clip-path:url(#SVGID_40_);fill:#FFFFFF;}
	.st20{clip-path:url(#SVGID_42_);fill:#961C1F;}
	.st21{clip-path:url(#SVGID_44_);fill:#961C1F;}
	.st22{clip-path:url(#SVGID_46_);fill:#FFFFFF;}
	.st23{clip-path:url(#SVGID_48_);fill:#FFFFFF;}
</style>
<g>
	<g>
		<g>
			<defs>
				<rect id="SVGID_1_" x="-51" y="-52.8" width="252" height="144"/>
			</defs>
			<clipPath id="SVGID_2_">
				<use xlink:href="#SVGID_1_"  style="overflow:visible;"/>
			</clipPath>
			<path class="st0" d="M48.9,18.4c-0.4,0.4-1,0.9-2.4,0.9c-1.8,0-3.2-1.4-3.2-3.7s1.4-3.5,3.6-3.5c1,0,1.6,0.3,2,0.7
				c0-1.7-0.7-2.1-2-2.1c-0.7,0-1.2,0.3-1.6,0.6l-0.9-1.5c0.6-0.6,1.6-1,2.8-1c2.1,0,3.6,1.5,3.6,3.8v6.6h-2v-0.8H48.9z M48.9,14.7
				c-0.3-0.4-0.9-0.8-1.6-0.8c-1.3,0-2,0.6-2,1.7c0,1,0.8,1.7,1.8,1.7c0.6,0,1.5-0.4,1.8-0.9V14.7z"/>
		</g>
		<g>
			<defs>
				<rect id="SVGID_3_" x="-51" y="-52.8" width="252" height="144"/>
			</defs>
			<clipPath id="SVGID_4_">
				<use xlink:href="#SVGID_3_"  style="overflow:visible;"/>
			</clipPath>
			<path class="st1" d="M53.3,16.7c0.6,0.4,1.7,0.7,2.6,0.7c1,0,1.7-0.3,1.7-1.1c0-1.1-1.7-1.5-3.5-2.3c-1-0.5-1.6-1.1-1.6-2.3
				c0-2,1.9-2.8,3.8-2.8c1.1,0,1.9,0.3,2.7,0.8l-0.6,2c-0.5-0.5-1.3-0.8-2.3-0.8c-0.6,0-1.5,0.1-1.5,0.9c0,0.3,0.1,0.5,0.6,0.7
				c1.2,0.5,4.3,1.1,4.3,3.8c0,2.4-1.8,3.3-4,3.3c-0.9,0-2-0.2-3-0.9L53.3,16.7z"/>
		</g>
		<g>
			<defs>
				<rect id="SVGID_5_" x="-51" y="-52.8" width="252" height="144"/>
			</defs>
			<clipPath id="SVGID_6_">
				<use xlink:href="#SVGID_5_"  style="overflow:visible;"/>
			</clipPath>
			<path class="st2" d="M61.5,16.7c0.6,0.4,1.7,0.7,2.6,0.7c1,0,1.7-0.3,1.7-1.1c0-1.1-1.7-1.5-3.5-2.3c-1-0.5-1.6-1.1-1.6-2.3
				c0-2,1.9-2.8,3.8-2.8c1.1,0,1.9,0.3,2.7,0.8l-0.6,2c-0.5-0.5-1.3-0.8-2.3-0.8c-0.6,0-1.5,0.1-1.5,0.9c0,0.3,0.2,0.5,0.6,0.7
				c1.2,0.5,4.3,1.1,4.3,3.8c0,2.4-1.8,3.3-4,3.3c-0.9,0-2-0.2-3-0.9L61.5,16.7z"/>
		</g>
		<g>
			<defs>
				<rect id="SVGID_7_" x="-51" y="-52.8" width="252" height="144"/>
			</defs>
			<clipPath id="SVGID_8_">
				<use xlink:href="#SVGID_7_"  style="overflow:visible;"/>
			</clipPath>
			<path class="st3" d="M71.4,15.3c0,1.3,0.8,2,1.6,2c1.1,0,1.8-0.5,2-1.5V8.9h2v10.2h-2v-0.8c-0.2,0.5-1.1,1-2.4,1
				c-1.8,0-3.2-1.3-3.2-3.7V8.9h2V15.3z"/>
		</g>
		<g>
			<defs>
				<rect id="SVGID_9_" x="-51" y="-52.8" width="252" height="144"/>
			</defs>
			<clipPath id="SVGID_10_">
				<use xlink:href="#SVGID_9_"  style="overflow:visible;"/>
			</clipPath>
			<path class="st4" d="M83.4,11c-0.2-0.2-0.5-0.3-0.8-0.3c-0.9,0-1.4,0.5-1.5,1.5v6.9h-2V8.9h2v0.7c0.3-0.6,1-0.9,1.9-0.9
				c0.4,0,0.7,0.1,1,0.3L83.4,11z"/>
		</g>
		<g>
			<defs>
				<rect id="SVGID_11_" x="-51" y="-52.8" width="252" height="144"/>
			</defs>
			<clipPath id="SVGID_12_">
				<use xlink:href="#SVGID_11_"  style="overflow:visible;"/>
			</clipPath>
			<path class="st5" d="M87,15.1c0,1.3,1,2.2,2.2,2.2c0.7,0,1.2-0.2,1.6-0.7l1.3,1.2c-0.8,1-1.8,1.5-3,1.5c-2.8,0-4.2-1.9-4.2-5.2
				s1.6-5.4,4.2-5.4c2.4,0,4,1.7,4,5.1c0,0.6,0,1.1-0.1,1.3C93,15.1,87,15.1,87,15.1z M87,13.2h4.2c-0.1-1.6-0.8-2.5-2-2.5
				C87.9,10.7,87.1,11.7,87,13.2"/>
		</g>
	</g>
	<g>
		<g>
			<defs>
				<path id="SVGID_13_" d="M99.2,10.7c1.2,0,2,1,2,2.5H97C97,11.7,97.8,10.7,99.2,10.7 M94.9,14.1c0,3.3,1.4,5.2,4.2,5.2
					c1.2,0,2.2-0.5,3-1.5l-1.3-1.2c-0.4,0.5-0.9,0.7-1.6,0.7c-1.3,0-2.2-0.9-2.2-2.2h6.2c0-0.1,0.1-0.6,0.1-1.3c0-3.5-1.6-5.1-4-5.1
					C96.6,8.8,94.9,10.8,94.9,14.1"/>
			</defs>
			<use xlink:href="#SVGID_13_"  style="overflow:visible;fill:#FFFFFF;"/>
			<clipPath id="SVGID_14_">
				<use xlink:href="#SVGID_13_"  style="overflow:visible;"/>
			</clipPath>
			<rect x="94.9" y="8.8" class="st6" width="8.2" height="10.6"/>
		</g>
	</g>
	<g>
		<g>
			<defs>
				<path id="SVGID_15_" d="M107,9.8V8.9h-2v10.2h2v-6.9c0.2-1,0.9-1.5,1.8-1.5c1,0,1.8,0.6,1.8,2v6.5h2v-6.7c0-2.4-1.4-3.7-3.3-3.7
					C108.1,8.8,107.2,9.3,107,9.8"/>
			</defs>
			<use xlink:href="#SVGID_15_"  style="overflow:visible;fill:#FFFFFF;"/>
			<clipPath id="SVGID_16_">
				<use xlink:href="#SVGID_15_"  style="overflow:visible;"/>
			</clipPath>
			<rect x="105" y="8.8" class="st7" width="7.6" height="10.4"/>
		</g>
	</g>
	<g>
		<g>
			<defs>
				<path id="SVGID_17_" d="M118.7,10.7c1.2,0,2,1,2,2.5h-4.2C116.5,11.7,117.3,10.7,118.7,10.7 M114.5,14.1c0,3.3,1.4,5.2,4.2,5.2
					c1.2,0,2.2-0.5,3-1.5l-1.3-1.2c-0.4,0.5-0.9,0.7-1.6,0.7c-1.3,0-2.2-0.9-2.2-2.2h6.2c0-0.1,0.1-0.6,0.1-1.3c0-3.5-1.6-5.1-4-5.1
					C116.1,8.8,114.5,10.8,114.5,14.1"/>
			</defs>
			<use xlink:href="#SVGID_17_"  style="overflow:visible;fill:#FFFFFF;"/>
			<clipPath id="SVGID_18_">
				<use xlink:href="#SVGID_17_"  style="overflow:visible;"/>
			</clipPath>
			<rect x="114.5" y="8.8" class="st8" width="8.2" height="10.6"/>
		</g>
	</g>
	<g>
		<g>
			<defs>
				<path id="SVGID_19_" d="M126.5,9.6V8.9h-2v10.2h2v-6.9c0.1-1,0.6-1.5,1.5-1.5c0.3,0,0.5,0.1,0.8,0.3l0.7-2
					c-0.3-0.2-0.6-0.3-1-0.3C127.6,8.8,126.8,9.1,126.5,9.6"/>
			</defs>
			<use xlink:href="#SVGID_19_"  style="overflow:visible;fill:#FFFFFF;"/>
			<clipPath id="SVGID_20_">
				<use xlink:href="#SVGID_19_"  style="overflow:visible;"/>
			</clipPath>
			<rect x="124.6" y="8.8" class="st9" width="4.9" height="10.4"/>
		</g>
	</g>
	<g>
		<g>
			<defs>
				<path id="SVGID_21_" d="M132.4,13.9c0-2,0.7-3.3,2.3-3.3c0.8,0,1.5,0.6,1.6,1.4v4c-0.2,0.6-0.7,1.1-2,1.1
					C133,17.2,132.4,16,132.4,13.9 M130.3,13.9c0,3,1.2,5.4,3.8,5.4c1.1,0,1.8-0.4,2.1-0.9c0,1.8-0.8,2.7-2.2,3.1l0.4,2
					c2.5-0.2,3.9-2.8,3.9-5.9V8.9h-2v0.8c-0.4-0.4-0.9-1-2.1-1C132,8.8,130.3,10.7,130.3,13.9"/>
			</defs>
			<use xlink:href="#SVGID_21_"  style="overflow:visible;fill:#FFFFFF;"/>
			<clipPath id="SVGID_22_">
				<use xlink:href="#SVGID_21_"  style="overflow:visible;"/>
			</clipPath>
			<rect x="130.3" y="8.8" class="st10" width="7.9" height="14.7"/>
		</g>
	</g>
	<g>
		<g>
			<defs>
				<polygon id="SVGID_23_" points="145.5,8.9 143.6,16.4 141.6,8.9 139.6,8.9 142.6,19.2 141.4,23.4 143.5,23.4 147.6,8.9 				"/>
			</defs>
			<use xlink:href="#SVGID_23_"  style="overflow:visible;fill:#FFFFFF;"/>
			<clipPath id="SVGID_24_">
				<use xlink:href="#SVGID_23_"  style="overflow:visible;"/>
			</clipPath>
			<rect x="139.6" y="8.9" class="st11" width="8.1" height="14.5"/>
		</g>
	</g>
	<g>
		<g>
			<defs>
				<path id="SVGID_25_" d="M62.6,24.6c0,0.5,0.1,0.8,0.4,1.1c0.4,0.5,1,0.8,1.5,1.1c0.7,0.4,1.2,0.7,1.2,1.2s-0.5,0.8-1.1,0.8
					c-0.7,0-1.2-0.2-1.6-0.5l-0.4,1c0.5,0.3,1.1,0.5,2,0.5c1.2,0,2.1-0.7,2.1-1.9c0-1-0.8-1.5-1.9-2.1c-0.5-0.2-1.1-0.6-1.1-1
					c0-0.5,0.4-0.7,1.1-0.7c0.6,0,1.1,0.2,1.4,0.4l0.3-1c-0.3-0.3-1-0.5-1.8-0.5C63.5,23,62.6,23.6,62.6,24.6"/>
			</defs>
			<use xlink:href="#SVGID_25_"  style="overflow:visible;fill:#FFFFFF;"/>
			<clipPath id="SVGID_26_">
				<use xlink:href="#SVGID_25_"  style="overflow:visible;"/>
			</clipPath>
			<rect x="62.5" y="23" class="st12" width="4.1" height="6.7"/>
		</g>
	</g>
	<g>
		<g>
			<defs>
				<polygon id="SVGID_27_" points="71.2,23.1 71.2,29.7 74.7,29.7 74.7,28.7 72.2,28.7 72.2,26.8 73.8,26.8 73.8,25.8 72.2,25.8 
					72.2,24.1 74.7,24.1 74.7,23.1 				"/>
			</defs>
			<use xlink:href="#SVGID_27_"  style="overflow:visible;fill:#FFFFFF;"/>
			<clipPath id="SVGID_28_">
				<use xlink:href="#SVGID_27_"  style="overflow:visible;"/>
			</clipPath>
			<rect x="71.2" y="23.1" class="st13" width="3.5" height="6.5"/>
		</g>
	</g>
	<g>
		<g>
			<defs>
				<path id="SVGID_29_" d="M80.4,24.1h1.4c0.7,0,1,0.3,1,1s-0.3,1-1,1h-1.4V24.1z M79.4,23.1v6.5h1V27h1.2l1.2,2.6h1.1l-1.3-2.8
					c0.8-0.2,1.2-0.9,1.2-1.8c0-1.2-0.7-2-2.1-2L79.4,23.1L79.4,23.1z"/>
			</defs>
			<use xlink:href="#SVGID_29_"  style="overflow:visible;fill:#FFFFFF;"/>
			<clipPath id="SVGID_30_">
				<use xlink:href="#SVGID_29_"  style="overflow:visible;"/>
			</clipPath>
			<rect x="79.4" y="23.1" class="st14" width="4.4" height="6.5"/>
		</g>
	</g>
	<g>
		<g>
			<defs>
				<polygon id="SVGID_31_" points="91.7,23.1 90.2,28.4 88.8,23.1 87.6,23.1 89.6,29.7 90.8,29.7 92.9,23.1 				"/>
			</defs>
			<use xlink:href="#SVGID_31_"  style="overflow:visible;fill:#FFFFFF;"/>
			<clipPath id="SVGID_32_">
				<use xlink:href="#SVGID_31_"  style="overflow:visible;"/>
			</clipPath>
			<rect x="87.6" y="23.1" class="st15" width="5.2" height="6.5"/>
		</g>
	</g>
	<g>
		<g>
			<defs>
				<rect id="SVGID_33_" x="97.1" y="23.1" width="1" height="6.5"/>
			</defs>
			<use xlink:href="#SVGID_33_"  style="overflow:visible;fill:#FFFFFF;"/>
			<clipPath id="SVGID_34_">
				<use xlink:href="#SVGID_33_"  style="overflow:visible;"/>
			</clipPath>
			<rect x="97.1" y="23.1" class="st16" width="1" height="6.5"/>
		</g>
	</g>
	<g>
		<g>
			<defs>
				<path id="SVGID_35_" d="M102.8,26.4c0,1.9,1.1,3.4,2.6,3.4c0.9,0,1.6-0.4,2.1-1.1l-0.8-0.5c-0.3,0.3-0.7,0.6-1.3,0.6
					c-1,0-1.7-1-1.7-2.3c0-1.4,0.6-2.3,1.6-2.3c0.7,0,1.1,0.2,1.4,0.7l0.8-0.5c-0.5-0.8-1.2-1.2-2.2-1.2
					C103.8,23,102.8,24.5,102.8,26.4"/>
			</defs>
			<use xlink:href="#SVGID_35_"  style="overflow:visible;fill:#FFFFFF;"/>
			<clipPath id="SVGID_36_">
				<use xlink:href="#SVGID_35_"  style="overflow:visible;"/>
			</clipPath>
			<rect x="102.8" y="23" class="st17" width="4.8" height="6.7"/>
		</g>
	</g>
	<g>
		<g>
			<defs>
				<polygon id="SVGID_37_" points="112.2,23.1 112.2,29.7 115.7,29.7 115.7,28.7 113.2,28.7 113.2,26.8 114.8,26.8 114.8,25.8 
					113.2,25.8 113.2,24.1 115.7,24.1 115.7,23.1 				"/>
			</defs>
			<use xlink:href="#SVGID_37_"  style="overflow:visible;fill:#FFFFFF;"/>
			<clipPath id="SVGID_38_">
				<use xlink:href="#SVGID_37_"  style="overflow:visible;"/>
			</clipPath>
			<rect x="112.2" y="23.1" class="st18" width="3.5" height="6.5"/>
		</g>
	</g>
	<g>
		<g>
			<defs>
				<path id="SVGID_39_" d="M120.3,24.6c0,0.5,0.1,0.8,0.4,1.1c0.4,0.5,1,0.8,1.5,1.1c0.7,0.4,1.2,0.7,1.2,1.2s-0.5,0.8-1.1,0.8
					c-0.7,0-1.2-0.2-1.6-0.5l-0.4,1c0.5,0.3,1.1,0.5,2,0.5c1.2,0,2.1-0.7,2.1-1.9c0-1-0.8-1.5-2-2.1c-0.5-0.2-1.1-0.6-1.1-1
					c0-0.5,0.4-0.7,1.1-0.7c0.6,0,1.1,0.2,1.4,0.4l0.3-1c-0.3-0.3-1-0.5-1.8-0.5C121.3,23,120.3,23.6,120.3,24.6"/>
			</defs>
			<use xlink:href="#SVGID_39_"  style="overflow:visible;fill:#FFFFFF;"/>
			<clipPath id="SVGID_40_">
				<use xlink:href="#SVGID_39_"  style="overflow:visible;"/>
			</clipPath>
			<rect x="120.2" y="23" class="st19" width="4.1" height="6.7"/>
		</g>
	</g>
	<g>
		<g>
			<defs>
				<rect id="SVGID_41_" x="-51" y="-52.8" width="252" height="144"/>
			</defs>
			<clipPath id="SVGID_42_">
				<use xlink:href="#SVGID_41_"  style="overflow:visible;"/>
			</clipPath>
			<path class="st20" d="M20,2.5c-2.5,0-4.9,0.5-7,1.5c0.5-0.1,1-0.1,1.5-0.1c4.1,0,7,2.9,7,7.3v4.3c1.2-0.8,2.6-1.3,4.3-1.3
				c4.6,0,7.7,3.2,7.7,9.9c0,1.2-0.1,2.1-0.1,2.4H21.5c0,2.5,1.9,4.2,4.3,4.2c1.4,0,2.4-0.5,3.1-1.4l2.4,2.2
				c3.4-3.1,5.5-7.5,5.5-12.4C36.8,10,29.3,2.5,20,2.5"/>
		</g>
		<g>
			<defs>
				<rect id="SVGID_43_" x="-51" y="-52.8" width="252" height="144"/>
			</defs>
			<clipPath id="SVGID_44_">
				<use xlink:href="#SVGID_43_"  style="overflow:visible;"/>
			</clipPath>
			<path class="st21" d="M24.1,22.2c0-0.1,0-0.2,0-0.3c0-0.1,0-0.1,0-0.2c0,0,0,0,0-0.1s0.1-0.2,0.1-0.2c0-0.1,0-0.1,0.1-0.2
				l0.1-0.1c0.1-0.1,0.1-0.2,0.2-0.3c0.1-0.2,0.2-0.3,0.4-0.4c0.2-0.2,0.3-0.4,0.5-0.5c0.1-0.1,0.1-0.1,0.2-0.2
				c0-0.1,0.1-0.1,0.1-0.2c0.1-0.1,0.1-0.2,0.2-0.3c0,0,0,0,0-0.1c0.1-0.1,0.1-0.2,0.2-0.3c0-0.1,0.1-0.2,0.1-0.3c0-0.1,0-0.1,0-0.2
				s0.1-0.2,0.1-0.3l0,0c0-0.1,0-0.3,0-0.4s0-0.2,0-0.2s0,0,0-0.1c0,0,0,0,0.1,0c0.2,0.2,0.4,0.4,0.6,0.6c0.1,0.2,0.3,0.3,0.4,0.5
				c0.1,0.1,0.2,0.2,0.2,0.4c0.1,0.2,0.2,0.5,0.3,0.7c0.1,0.3,0.1,0.5,0.2,0.8c0,0.1,0,0.2,0,0.3c0,0.1,0,0.2,0,0.3
				c0,0.2,0,0.4,0,0.6c0,0.3-0.1,0.5-0.3,0.8c-0.1,0.2-0.2,0.3-0.3,0.5c-0.1,0.2-0.2,0.3-0.4,0.4c-0.2,0.2-0.4,0.3-0.6,0.4
				c-0.1,0-0.2,0.1-0.3,0.1c-0.2,0.1-0.3,0.1-0.5,0.1c-0.1,0-0.2,0-0.3,0c-0.3-2,0.9-3.3,1.2-3.6c-1.2,0.2-2,1.5-2,3.3
				c-0.1,0-0.1-0.1-0.2-0.1c-0.1-0.1-0.2-0.2-0.3-0.3c-0.1-0.2-0.2-0.5-0.2-0.7l0,0C24.1,22.3,24.1,22.3,24.1,22.2L24.1,22.2"/>
		</g>
	</g>
	<g>
		<g>
			<defs>
				<path id="SVGID_45_" d="M3.3,19.3C3.3,28.5,10.8,36,20,36c2.4,0,4.8-0.5,6.9-1.5c-0.4,0.1-0.8,0.1-1.2,0.1
					c-5.3,0-8.1-3.6-8.1-10c0-0.5,0.1-0.9,0.1-1.4v-0.7c-0.7,0.8-2,1.8-4.6,1.8c-3.5,0-6.2-2.7-6.2-7.1s2.8-6.8,6.9-6.8
					c1.9,0,3.1,0.6,3.8,1.4c0-3.3-1.4-4.1-3.8-4.1c-1.4,0-2.4,0.5-3.1,1.2L9.2,6.4C5.6,9.5,3.3,14.1,3.3,19.3"/>
			</defs>
			<use xlink:href="#SVGID_45_"  style="overflow:visible;fill:#FFFFFF;"/>
			<clipPath id="SVGID_46_">
				<use xlink:href="#SVGID_45_"  style="overflow:visible;"/>
			</clipPath>
			<rect x="3.3" y="6.4" class="st22" width="23.6" height="29.6"/>
		</g>
	</g>
	<g>
		<g>
			<defs>
				<path id="SVGID_47_" d="M13.4,15.1c0.5,0,0.6,0,0.6,0s-0.3,0.9-0.4,1.4c-0.3-0.2-0.7-0.4-1.1-0.2C12.5,16.3,13.1,15.3,13.4,15.1
					 M13.9,13.4c-0.1,0.1-0.1,0.2-0.2,0.2l-0.1,0.1c-0.1,0.1-0.1,0.2-0.2,0.3c-0.1,0.1-0.1,0.2-0.2,0.3c-0.1,0.1-0.2,0.3-0.3,0.4
					c-0.1,0.1-0.2,0.2-0.3,0.4s-0.3,0.4-0.4,0.6c-0.1,0.1-0.1,0.2-0.2,0.3c-0.1,0.1-0.1,0.2-0.2,0.4c0,0.1-0.1,0.2-0.1,0.3
					c-0.1,0.2-0.1,0.3-0.2,0.5c0,0.1,0,0.2,0,0.3c0,0.1,0,0.2,0,0.3c0,0.1,0,0.1,0,0.2c0,0.2,0.1,0.3,0.2,0.5
					c0.1,0.2,0.3,0.4,0.4,0.6c0.1,0.1,0.3,0.2,0.4,0.3c0.2,0.1,0.4,0.2,0.6,0.2c0.2,0,0.4,0.1,0.7,0.1c0.2,0,0.3,0,0.5,0
					c0.3,0,0.5-0.1,0.7-0.2c0.1-0.1,0.2-0.1,0.3-0.2s0.1-0.1,0.2-0.2c0.1-0.1,0.2-0.3,0.2-0.4s0.1-0.3,0.1-0.4s0-0.1,0-0.2
					s0-0.2,0-0.2c0-0.1-0.1-0.3-0.2-0.4c-0.1-0.2-0.2-0.3-0.3-0.5s-0.2-0.3-0.3-0.4s-0.2-0.2-0.2-0.4c-0.1-0.2-0.2-0.4-0.3-0.6
					c-0.1-0.1-0.1-0.3-0.2-0.4c0,0-0.2-0.5-0.2-0.7c0-0.1,0-0.2,0-0.2c0-0.1,0-0.1,0-0.2c0-0.1,0-0.1,0-0.2c0-0.1,0-0.1,0-0.2v-0.1
					c0-0.1,0-0.2,0-0.3l0,0C14,13.3,14,13.4,13.9,13.4"/>
			</defs>
			<clipPath id="SVGID_48_">
				<use xlink:href="#SVGID_47_"  style="overflow:visible;"/>
			</clipPath>
			<rect x="11.6" y="13.2" class="st23" width="4.4" height="6.5"/>
		</g>
	</g>
</g>
</svg>
