<?xml version="1.0" standalone="no"?>
<!DOCTYPE svg PUBLIC "-//W3C//DTD SVG 20010904//EN"
 "http://www.w3.org/TR/2001/REC-SVG-20010904/DTD/svg10.dtd">
<svg version="1.0" xmlns="http://www.w3.org/2000/svg"
 width="246.000000pt" height="246.000000pt" viewBox="0 0 246.000000 246.000000"
 preserveAspectRatio="xMidYMid meet">
<metadata>
Created by potrace 1.11, written by Peter Selinger 2001-2013
</metadata>
<g transform="translate(0.000000,246.000000) scale(0.100000,-0.100000)"
fill="#000000" stroke="none">
<path d="M2437 2376 c-3 -8 -2 -18 3 -21 13 -8 20 9 11 24 -6 10 -10 9 -14 -3z"/>
<path d="M1050 2235 c-36 -7 -80 -15 -98 -19 -29 -6 -162 -52 -169 -59 -1 -2
29 -2 68 -1 209 5 364 -108 420 -306 7 -27 13 -111 13 -213 1 -92 5 -167 9
-167 4 0 20 6 36 15 106 55 264 66 375 26 200 -71 304 -275 301 -591 l-1 -115
-358 -3 -359 -2 7 -46 c12 -88 81 -169 167 -195 60 -17 151 -13 195 9 22 11
46 28 53 36 8 9 18 16 23 16 9 0 85 -67 117 -102 8 -10 21 -18 27 -18 14 0 98
89 146 155 74 103 150 272 165 370 3 17 9 50 13 75 13 69 10 237 -6 315 -21
106 -20 105 -48 180 -145 383 -507 640 -916 650 -63 1 -144 -3 -180 -10z"/>
<path d="M2446 2207 c3 -10 9 -15 12 -12 3 3 0 11 -7 18 -10 9 -11 8 -5 -6z"/>
<path d="M2443 2052 c0 -12 5 -22 9 -22 11 0 10 12 -2 30 -7 12 -9 10 -7 -8z"/>
<path d="M480 1942 c-266 -276 -353 -666 -229 -1034 31 -94 96 -210 168 -300
199 -249 490 -382 816 -374 111 3 244 29 327 65 l39 16 -76 2 c-130 3 -230 41
-308 117 -111 110 -159 261 -157 500 l0 110 -27 -26 c-55 -51 -131 -77 -235
-79 -223 -5 -380 169 -381 419 0 114 22 186 81 268 103 142 368 186 524 87
l41 -25 -6 54 c-15 137 -74 187 -218 188 -66 0 -85 -4 -134 -30 -31 -16 -61
-28 -66 -25 -5 3 -25 35 -45 70 -19 36 -39 65 -42 65 -4 0 -36 -31 -72 -68z"/>
<path d="M2437 1896 c-3 -8 -2 -18 3 -21 13 -8 20 9 11 24 -6 10 -10 9 -14 -3z"/>
<path d="M2446 1727 c3 -10 9 -15 12 -12 3 3 0 11 -7 18 -10 9 -11 8 -5 -6z"/>
<path d="M794 1530 c-109 -160 -121 -215 -61 -275 82 -82 243 -34 223 67 -3
18 -24 59 -45 93 -37 57 -58 110 -63 165 -3 22 -10 15 -54 -50z m32 -81 c-9
-36 -13 -39 -36 -34 -14 4 -27 8 -29 10 -8 9 42 65 58 65 16 0 17 -4 7 -41z"/>
<path d="M2443 1572 c0 -12 5 -22 9 -22 11 0 10 12 -2 30 -7 12 -9 10 -7 -8z"/>
<path d="M2437 1416 c-3 -8 -2 -18 3 -21 13 -8 20 9 11 24 -6 10 -10 9 -14 -3z"/>
<path d="M1575 1324 c-9 -50 -37 -103 -70 -134 -54 -50 -71 -114 -48 -172 19
-47 34 -45 39 6 5 53 33 105 74 135 l35 26 -20 -30 c-38 -60 -49 -91 -50 -140
0 -48 1 -50 25 -47 34 5 89 50 111 92 41 75 12 207 -58 273 l-31 28 -7 -37z"/>
<path d="M2446 1247 c3 -10 9 -15 12 -12 3 3 0 11 -7 18 -10 9 -11 8 -5 -6z"/>
<path d="M2443 1092 c0 -12 5 -22 9 -22 11 0 10 12 -2 30 -7 12 -9 10 -7 -8z"/>
<path d="M2437 936 c-3 -8 -2 -18 3 -21 13 -8 20 9 11 24 -6 10 -10 9 -14 -3z"/>
<path d="M2446 767 c3 -10 9 -15 12 -12 3 3 0 11 -7 18 -10 9 -11 8 -5 -6z"/>
<path d="M2443 612 c0 -12 5 -22 9 -22 11 0 10 12 -2 30 -7 12 -9 10 -7 -8z"/>
<path d="M2437 456 c-3 -8 -2 -18 3 -21 13 -8 20 9 11 24 -6 10 -10 9 -14 -3z"/>
<path d="M2435 291 c-3 -5 0 -13 6 -17 7 -4 9 -3 5 4 -3 5 0 13 6 15 9 4 10 6
1 6 -6 1 -14 -3 -18 -8z"/>
<path d="M2443 125 c0 -8 4 -12 9 -9 5 3 6 10 3 15 -9 13 -12 11 -12 -6z"/>
</g>
</svg>
